<?xml version="1.0" encoding="UTF-8" standalone="no"?>
<!-- Created with Inkscape (http://www.inkscape.org/) -->

<svg
   xmlns:dc="http://purl.org/dc/elements/1.1/"
   xmlns:cc="http://creativecommons.org/ns#"
   xmlns:rdf="http://www.w3.org/1999/02/22-rdf-syntax-ns#"
   xmlns:svg="http://www.w3.org/2000/svg"
   xmlns="http://www.w3.org/2000/svg"
   xmlns:sodipodi="http://sodipodi.sourceforge.net/DTD/sodipodi-0.dtd"
   xmlns:inkscape="http://www.inkscape.org/namespaces/inkscape"
   id="svg2817"
   height="48"
   width="48"
   version="1.0"
   inkscape:version="0.91 r13725"
   sodipodi:docname="ocr-translator.svg">
  <sodipodi:namedview
     pagecolor="#ffffff"
     bordercolor="#666666"
     borderopacity="1"
     objecttolerance="10"
     gridtolerance="10"
     guidetolerance="10"
     inkscape:pageopacity="0"
     inkscape:pageshadow="2"
     inkscape:window-width="1920"
     inkscape:window-height="1019"
     id="namedview226"
     showgrid="false"
     inkscape:zoom="4.9166667"
     inkscape:cx="1.9322034"
     inkscape:cy="24"
     inkscape:window-x="1920"
     inkscape:window-y="0"
     inkscape:window-maximized="1"
     inkscape:current-layer="svg2817" />
  <metadata
     id="metadata57">
    <rdf:RDF>
      <cc:Work
         rdf:about="">
        <dc:format>image/svg+xml</dc:format>
        <dc:type
           rdf:resource="http://purl.org/dc/dcmitype/StillImage" />
        <dc:title></dc:title>
      </cc:Work>
    </rdf:RDF>
  </metadata>
  <defs
     id="defs2819">
    <clipPath
       id="clipPath4421"
       clipPathUnits="userSpaceOnUse">
      <path
         id="path4423"
         fill="#ebebeb"
         d="m142 252c-1.108 0-2 0.892-2 2v24c0 1.108 0.892 2 2 2h26v-28h-26z" />
    </clipPath>
    <clipPath
       id="clipPath4421-8"
       clipPathUnits="userSpaceOnUse">
      <path
         style="fill:#ebebeb"
         inkscape:connector-curvature="0"
         id="path4423-2"
         d="m 142,252 c -1.108,0 -2,0.892 -2,2 l 0,24 c 0,1.108 0.892,2 2,2 l 26,0 0,-28 -26,0 z" />
    </clipPath>
  </defs>
  <g
     id="g4476">
    <g
       id="g4406">
      <path
         inkscape:connector-curvature="0"
         style="opacity:0.5"
         id="path4413"
         d="m 152,268 16,12 0,-24 -16,-16 z"
         transform="translate(-136,-236)"
         clip-path="url(#clipPath4421-8)" />
      <path
         inkscape:connector-curvature="0"
         style="fill:#ebebeb"
         id="rect4203"
         d="m 6,16 c -1.108,0 -2,0.892 -2,2 l 0,24 c 0,1.108 0.892,2 2,2 l 26,0 0,-28 -26,0 z" />
      <path
         inkscape:connector-curvature="0"
         style="opacity:0.2;fill:#ffffff"
         id="path3276"
         d="M 4,18.5 4,18 c 0,-1.108 0.892,-2 2,-2 l 26,0 0,0.5 -26,0 c -1.108,0 -2,0.892 -2,2 z" />
      <path
         inkscape:connector-curvature="0"
         style="opacity:0.3"
         id="path4107"
         d="m 15.403,22.554 c 0.60029,0.4156 1.1544,0.92353 1.6623,1.5238 l -0.90043,1.1082 c -0.55412,-0.69263 -1.1313,-1.2698 -1.7316,-1.7316 l 0.96969,-0.90043 m 0,4.3636 c 0.55411,0.4156 1.0851,0.87736 1.5931,1.3853 l -0.90043,1.1775 c -0.509,-0.646 -1.063,-1.2 -1.663,-1.662 l 0.96969,-0.90044 m 0.27706,4.7792 1.1082,0.76191 c -0.55412,1.8932 -1.3622,3.7172 -2.4242,5.4719 l -1.178,-0.901 c 1.062,-1.7085 1.8932,-3.4863 2.4935,-5.3333 m 3.2554,-9.697 1.316,0.27706 c -0.0924,0.46178 -0.23089,0.90045 -0.41559,1.316 l 5.4026,0 0,1.2468 -5.9567,0 -0.62337,1.039 c -0.18472,0.36942 -0.48486,0.76192 -0.90044,1.1775 l -0.832,-0.969 c 0.87734,-1.062 1.5469,-2.4242 2.0087,-4.0866 m -0.34632,4.2944 6.3723,0 c -2e-5,1.4315 -0.0231,2.7706 -0.0693,4.0173 l 0.90043,0 0,1.2468 -0.96969,0 c -0.0924,0.9697 -0.16163,1.9163 -0.20779,2.8398 l 1.039,0 0,1.1775 -1.1775,0 c -0.18472,1.6162 -0.83119,2.4242 -1.9394,2.4242 -0.27707,0 -0.66956,-0.0462 -1.1775,-0.13852 l -0.20779,-1.1775 c 0.60028,0.0923 1.062,0.13853 1.3853,0.13853 0.32322,0 0.53101,-0.41559 0.62338,-1.2468 l -5.4026,0 c 0.1847,-1.2468 0.34631,-2.5858 0.48485,-4.0173 l -0.9697,0 0,-1.2468 1.1082,0 c 0.0923,-1.2929 0.16161,-2.632 0.20779,-4.0173 m 1.039,4.0173 3.948,0 c 0.0462,-0.96969 0.0693,-1.9163 0.0693,-2.8398 l -3.8095,0 c -0.0462,1.0159 -0.11545,1.9625 -0.20779,2.8398 m 1.7316,-2.4935 c 0.50793,0.32324 0.96969,0.69265 1.3853,1.1082 l -0.83117,1.039 c -0.4156,-0.46175 -0.87736,-0.87733 -1.3853,-1.2468 l 0.83116,-0.90043 m 1.9394,6.5801 c 0.0923,-0.96969 0.1616,-1.9163 0.20779,-2.8398 l -3.948,0 c -0.0924,1.0159 -0.2078,1.9625 -0.34632,2.8398 l 4.0866,0 m -2.1472,-2.4935 c 0.5541,0.32323 1.062,0.69264 1.5238,1.1082 l -0.90043,1.039 c -0.46177,-0.50793 -0.94662,-0.9466 -1.4546,-1.316 l 0.83117,-0.83117 m -7.2727,-8.2424 0,10.874 -1.2468,0 0,-1.1775 -1.1775,0 0,1.8009 -1.2468,0 0,-11.498 3.671,0 m -2.4242,8.5195 1.1775,0 0,-7.342 -1.1775,0 0,7.342" />
      <path
         inkscape:connector-curvature="0"
         style="opacity:0.3"
         id="path4424"
         d="m 4,41 0,1 c 0,1.108 0.892,2 2,2 l 26,0 0,-1 -26,0 C 4.892,43 4,42.108 4,41 Z" />
      <path
         inkscape:connector-curvature="0"
         style="fill:#c4c4c4"
         id="path3269"
         d="M 16,32 32,44 32,20 16,4 Z" />
      <path
         inkscape:connector-curvature="0"
         style="fill:#2095f2"
         id="rect3267"
         d="m 16,4 0,28 26,0 c 1.108,0 2,-0.892 2,-2 L 44,6 C 44,4.892 43.108,4 42,4 L 16,4 Z" />
      <path
         inkscape:connector-curvature="0"
         style="fill:#ffffff"
         id="path4104"
         d="m 28.221,19.374 0.39264,-1.4724 c 0.44172,-1.5951 0.8589,-3.4601 1.2515,-5.1534 l 0.0982,0 c 0.41718,1.6687 0.8589,3.5583 1.3006,5.1534 l 0.36809,1.4724 -3.411,0 m 5.128,6.626 3.8282,0 -5.0061,-16 -4.3436,0 -5.0061,16 3.681,0 0.9816,-3.8037 4.8834,0 0.982,3.804" />
      <path
         inkscape:connector-curvature="0"
         style="opacity:0.2;fill:#ffffff"
         id="path3278"
         d="m 44,6.5 c 0,-1.108 -0.892,-2 -2,-2 L 16,4.5 16,4 42,4 c 1.108,0 2,0.892 2,2 l 0,0.5 z" />
      <path
         inkscape:connector-curvature="0"
         style="opacity:0.3"
         id="path4430"
         d="m 44,29 c 0,1.108 -0.892,2 -2,2 l -26,0 0,1 26,0 c 1.108,0 2,-0.892 2,-2 l 0,-1 z" />
    </g>
    <g
       transform="matrix(0.94087698,0,0,0.94087698,4.9923911,4.7831842)"
       id="g4453">
      <rect
         style="fill:#000000;fill-opacity:1;stroke:#000000;stroke-width:0.3000215;stroke-linecap:round;stroke-linejoin:miter;stroke-miterlimit:1;stroke-dasharray:none;stroke-opacity:1"
         id="rect3312"
         width="2.0021701"
         height="12.155175"
         x="-0.57916659"
         y="45.375687"
         transform="matrix(0.70109537,-0.71306752,0.70109537,0.71306752,0,0)"
         class="ColorScheme-Text" />
      <path
         inkscape:connector-curvature="0"
         style="fill:#4d4d4d;fill-opacity:1;stroke:#000000;stroke-width:0.30000001;stroke-linecap:round;stroke-linejoin:miter;stroke-miterlimit:1;stroke-dasharray:none;stroke-opacity:1"
         d="m 26.443612,17.207788 c -4.948968,0 -8.93317,4.052239 -8.93317,9.085715 0,5.033479 3.984202,9.085716 8.93317,9.085716 4.948968,0 8.93317,-4.052237 8.93317,-9.085716 0,-5.033476 -3.984202,-9.085715 -8.93317,-9.085715 z m 0,2.019048 c 3.849198,0 6.948021,3.151739 6.948021,7.066667 0,3.914929 -3.098823,7.066668 -6.948021,7.066668 -3.849198,0 -6.948021,-3.151739 -6.948021,-7.066668 0,-3.914928 3.098823,-7.066667 6.948021,-7.066667 z"
         id="rect3294"
         class="ColorScheme-Text" />
    </g>
  </g>
</svg>
